<svg width="374.11666258578134" height="135.8709005101049" viewBox="-4 0 374.11666258578134 135.8709005101049" class="css-1j8o68f"><defs id="SvgjsDefs1327"></defs><g id="SvgjsG1328" featurekey="HKaMnE-0" transform="matrix(1.5064267271761147,0,0,1.5064267271761147,-34.87944928234354,4.114304969430446)" fill="#9ad14b"><g xmlns="http://www.w3.org/2000/svg" display="none"><rect x="-68.5" y="-86.5" display="inline" fill="#9ad14b" stroke="#9ad14b" stroke-miterlimit="10" width="95" height="95"></rect><rect x="-68.5" y="35.5" display="inline" fill="#9ad14b" stroke="#9ad14b" stroke-miterlimit="10" width="95" height="95"></rect><rect x="53.5" y="-86.5" display="inline" fill="#9ad14b" stroke="#9ad14b" stroke-miterlimit="10" width="95" height="95"></rect><rect x="53.5" y="35.5" display="inline" fill="#9ad14b" stroke="#9ad14b" stroke-miterlimit="10" width="95" height="95"></rect></g><g xmlns="http://www.w3.org/2000/svg"><g><path fill="#9ad14b" d="M40.038,63.557c-8.653-2.367-10.15-8.553-10.216-8.841c-0.157-0.726-0.872-1.191-1.6-1.035    c-0.729,0.155-1.195,0.872-1.04,1.601c0.069,0.328,1.819,8.056,12.143,10.88c0.119,0.033,0.239,0.048,0.357,0.048    c0.593,0,1.137-0.394,1.301-0.994C41.181,64.496,40.757,63.753,40.038,63.557z"></path><path fill="#9ad14b" d="M79.256,45.366c-0.1-0.605-0.52-1.11-1.096-1.32c-0.053-0.019-0.547-0.195-1.371-0.41    c0.059-11.399-6.398-19.169-6.682-19.502c-0.418-0.491-1.074-0.706-1.701-0.55c-0.096,0.023-0.812,0.21-1.884,0.62    c-2.942-4.72-6.604-7.543-6.772-7.671c-0.549-0.417-1.294-0.462-1.89-0.113c-0.079,0.046-0.623,0.373-1.411,0.95    c-2.63-3.002-5.361-4.545-5.492-4.618c-0.514-0.286-1.137-0.287-1.65-0.003c-0.131,0.072-2.877,1.613-5.515,4.625    c-0.797-0.581-1.347-0.909-1.427-0.956c-0.604-0.351-1.359-0.3-1.908,0.132c-0.163,0.127-3.697,2.946-6.613,7.653    c-1.068-0.409-1.784-0.596-1.88-0.619c-0.621-0.153-1.27,0.055-1.688,0.535c-0.264,0.304-6.291,7.402-6.641,19.411    c-1.079,0.261-1.733,0.495-1.795,0.517c-0.576,0.209-0.996,0.714-1.096,1.32c-0.094,0.562-2.169,13.861,7.64,21.748    c6.503,5.23,16.181,5.984,20.035,6.066c0.482,4.714,2.264,10.933,7.99,14.073c0.26,0.142,0.539,0.209,0.815,0.209    c0.601,0,1.184-0.319,1.492-0.883c0.452-0.823,0.15-1.856-0.673-2.308c-4.271-2.342-5.733-7.207-6.187-11.1    c4.02-0.112,13.399-0.946,19.757-6.059C81.424,59.227,79.35,45.929,79.256,45.366z M73.401,42.986    c-1.045-0.134-2.216-0.227-3.48-0.227c-2.621,0-5.113,0.407-7.423,1.187c-0.478-3.958-2.062-7.216-3.916-9.771    c2.366-3.172,5.427-5.078,7.658-6.142c0.141-0.035,0.28-0.081,0.413-0.154c0.06-0.032,0.109-0.074,0.163-0.112    c0.524-0.232,0.989-0.415,1.364-0.55C69.69,29.355,73.254,35.211,73.401,42.986z M50.133,30.694    c2.295,1.559,8.574,6.563,9.067,14.697c-1.168,0.638-2.274,1.378-3.299,2.238c-2.977,2.499-4.792,6.062-5.901,9.541    c-1.108-3.478-2.924-7.042-5.9-9.541c-0.95-0.797-1.967-1.5-3.04-2.107C41.493,37.313,47.833,32.258,50.133,30.694z M63.412,25.65    c-2.228,1.225-4.838,3.104-7.059,5.867c-1.616-1.682-3.183-2.873-4.211-3.574c1.426-3.905,4.787-6.723,6.46-7.933    C59.723,21.018,61.686,22.981,63.412,25.65z M50.128,16.25c0.87,0.599,2.305,1.713,3.716,3.312    c-1.279,1.23-2.633,2.804-3.713,4.687c-1.083-1.883-2.443-3.458-3.729-4.688C47.81,17.968,49.255,16.85,50.128,16.25z     M41.65,20.021c1.686,1.209,5.043,4.009,6.472,7.92c-1.02,0.691-2.563,1.86-4.16,3.509c-2.21-2.727-4.796-4.587-7.007-5.802    C38.651,23.004,40.555,21.041,41.65,20.021z M32.192,27.214c0.366,0.131,0.819,0.308,1.328,0.531    c0.063,0.047,0.125,0.095,0.196,0.134c0.145,0.079,0.297,0.127,0.45,0.161c2.204,1.051,5.205,2.93,7.56,6.055    c-1.886,2.581-3.504,5.89-3.972,9.933c-2.379-0.836-4.959-1.269-7.676-1.269c-1.087,0-2.104,0.069-3.033,0.173    C27.456,34.812,30.767,29.254,32.192,27.214z M23.99,46.946c1.206-0.321,3.418-0.787,6.089-0.787    c4.632,0,8.614,1.371,11.835,4.074c5.254,4.411,6.209,13.456,6.382,16.856c-0.034,0.796-0.03,1.307-0.028,1.41l0.011,0.471    c-0.009,0.251-0.016,0.518-0.018,0.807c-5.731-0.146-13.126-1.597-17.745-5.313C23.702,58.986,23.756,49.969,23.99,46.946z     M69.484,64.465c-4.63,3.724-12.045,5.174-17.78,5.314l0.029-1.291c0.001-0.047,0.002-0.188,0-0.394    c0.025-0.374,0.051-0.591,0.053-0.607c0.03-0.245,0.004-0.484-0.064-0.706c0.216-3.624,1.268-12.269,6.365-16.548    c3.221-2.704,7.202-4.074,11.834-4.074c2.652,0,4.878,0.468,6.09,0.789C76.244,49.978,76.295,58.989,69.484,64.465z"></path><path fill="#9ad14b" d="M71.784,53.687c-0.729-0.159-1.442,0.303-1.606,1.027c-0.059,0.263-1.544,6.471-10.215,8.843    c-0.719,0.197-1.143,0.939-0.945,1.659c0.164,0.6,0.708,0.994,1.301,0.994c0.118,0,0.238-0.015,0.357-0.048    c10.322-2.824,12.072-10.552,12.142-10.88C72.972,54.555,72.51,53.845,71.784,53.687z"></path></g></g></g><g id="SvgjsG1329" featurekey="J3GnXt-0" transform="matrix(5.669054598361259,0,0,5.669054598361259,102.53727581155273,-4.014316777304018)" fill="#ff1e27"><path d="M4.14 10.58 l0 2.92 l2.8 0 c0.92 0 1.46 -0.54 1.46 -1.46 s-0.54 -1.46 -1.46 -1.46 l-2.8 0 z M8.68 15.48 c0.56 0.76 1.12 1.52 1.7 2.26 c0.56 0.74 1.12 1.5 1.68 2.26 l-3.66 0 c-0.72 -0.96 -1.42 -1.92 -2.12 -2.88 c-0.7 -0.94 -1.42 -1.9 -2.14 -2.86 l0 5.74 l-3 0 l0 -12.24 l5.8 0 c2.28 0 4.22 1.74 4.22 4.04 c0 1.62 -1 3.04 -2.48 3.68 z M20.22 10 l3 0 l0 5 c0 3.06 -2.12 5.1 -5.1 5.1 c-3.06 0 -5.1 -2.14 -5.1 -5.1 l0 -5 l3 0 l0 5 c0 1.34 0.68 2.32 2.1 2.32 c1.46 0 2.1 -0.96 2.1 -2.32 l0 -5 z M28.22 15 c0 1.48 0.74 2.32 2.24 2.32 c0.42 0 0.8 -0.06 1.1 -0.2 c0.56 -0.22 0.94 -0.64 1.14 -1.22 c0.08 -0.28 0.12 -0.58 0.12 -0.9 s-0.04 -0.62 -0.12 -0.9 c-0.22 -0.62 -0.56 -0.96 -1.14 -1.24 c-0.3 -0.12 -0.68 -0.18 -1.1 -0.18 c-1.5 0 -2.24 0.84 -2.24 2.32 z M25.22 6 l3 0 l0 5 c0.68 -0.78 1.6 -1.1 2.62 -1.1 c2.92 0 4.98 2.34 4.98 5.14 c0 3.16 -2.34 5.06 -5.32 5.06 c-3.1 0 -5.28 -2.04 -5.28 -5.1 l0 -9 z M44.199999999999996 15 l0 -5 l3 0 l0 9.48 c0 3.18 -2.28 5.12 -5.3 5.12 c-1.06 0 -2.12 -0.1 -3.14 -0.44 l0 -3.08 c0.86 0.46 2.02 0.62 2.98 0.62 c1.08 0 1.94 -0.32 2.34 -1.36 c0.08 -0.28 0.12 -0.58 0.12 -0.88 l0 -0.46 c-0.68 0.76 -1.56 1.1 -2.56 1.1 c-2.84 0 -4.64 -2.44 -4.64 -5.1 l0 -5 l3 0 l0 5 c0 1.36 0.54 2.32 2 2.32 c1.42 0 2.2 -0.94 2.2 -2.32 z"></path></g></svg>