<?xml version="1.0" encoding="iso-8859-1"?>
<!-- Generator: Adobe Illustrator 19.0.0, SVG Export Plug-In . SVG Version: 6.00 Build 0)  -->
<svg xmlns="http://www.w3.org/2000/svg" xmlns:xlink="http://www.w3.org/1999/xlink" version="1.1" id="Layer_1" x="0px" y="0px" viewBox="0 0 408.91 408.91" style="enable-background:new 0 0 408.91 408.91;" xml:space="preserve" width="512" height="512">
<g>
	<path style="fill:#90BC42;" d="M204.458,7.498v37.95c-27.92,14.64-42.1,79.41-42.1,79.41c-10.98-41.09-27.74-61.12-38.94-70.42   C145.848,26.708,173.958,7.498,204.458,7.498z"/>
	<path style="fill:#9AD14B;" d="M285.499,54.438c-11.2,9.3-27.97,29.33-38.95,70.42c0,0-14.18-64.77-42.09-79.41V7.498   C234.949,7.498,263.059,26.708,285.499,54.438z"/>
	<path style="fill:#9AD14B;" d="M315.658,133.688c-3.46,1.83-7.08,3.96-10.77,6.43c-16.4,10.95-34.07,28.55-44.57,56.39   c-0.18,0.12-0.36,0.25-0.54,0.37c-1.98-6.23-20.6-62.13-55.32-75.33c-19.33,7.35-33.67,27.92-42.92,45.79   c-7.38,14.24-11.53,26.77-12.41,29.54c-0.18-0.12-0.36-0.25-0.54-0.37c-10.49-27.84-28.16-45.44-44.56-56.39   c-3.69-2.47-7.31-4.6-10.77-6.43c-15.52-43.19,18.44-86.67,18.44-86.67s4.8,1.66,11.72,7.42c11.2,9.3,27.96,29.33,38.94,70.42   c0,0,14.18-64.77,42.1-79.41c27.91,14.64,42.09,79.41,42.09,79.41c10.98-41.09,27.75-61.12,38.95-70.42   c6.92-5.76,11.72-7.42,11.72-7.42S331.178,90.499,315.658,133.688z"/>
	<path style="fill:#9AD14B;" d="M336.648,176.519c0,0,0,0,0,0.01c-1.75,6.21-3.91,12.67-6.58,19.21   c-21.33,9.15-50.22,27.68-65.18,63.75c0,0-20.37-59.92-60.43-73.46c-15.96,5.39-28.79,18.14-38.44,31.53   c-14.62,20.23-21.99,41.93-21.99,41.93c-14.96-36.08-43.86-54.61-65.19-63.76c-2.66-6.53-4.82-12.98-6.57-19.18v-0.01   c-8.34-29.58-7.35-53.49-7.35-53.49s12.5,2.24,28.34,10.64c3.46,1.83,7.08,3.96,10.77,6.43c16.4,10.95,34.07,28.55,44.56,56.39   c0.13,0.31,0.24,0.63,0.36,0.94c0,0,0.06-0.2,0.18-0.57c0.66-2.09,3.19-9.75,7.57-19.51c8.69-19.38,24.66-47.04,47.76-55.82   c34.72,13.2,53.34,69.1,55.32,75.33c0.12,0.37,0.18,0.57,0.18,0.57c0.12-0.31,0.23-0.63,0.36-0.94   c10.5-27.84,28.17-45.44,44.57-56.39c3.69-2.47,7.31-4.6,10.77-6.43c15.83-8.4,28.33-10.64,28.33-10.64   S344.979,146.958,336.648,176.519z"/>
	<path style="fill:#9AD14B;" d="M237.458,339.288v62.12h-66v-62.12C193.199,343.918,215.708,343.918,237.458,339.288z"/>
	<path style="fill:#90BC42;" d="M204.46,339.288v62.12h-33.002v-62.12C182.329,343.918,193.585,343.918,204.46,339.288z"/>
	<path style="fill:#9AD14B;" d="M269.918,328.608c-10.48,4.76-21.37,8.32-32.46,10.68c-10.7,2.27-21.57,3.43-32.45,3.47   c-11.25,0.04-22.5-1.12-33.55-3.47c-11.09-2.36-21.98-5.92-32.46-10.68c-91.1-41.43-86.47-141.12-86.47-141.12   s11.28,1.8,26.31,8.24c21.33,9.15,50.23,27.68,65.19,63.76c0,0,8.06-23.72,24.02-44.69c9.4-12.35,21.55-23.75,36.41-28.77   c40.06,13.54,60.43,73.46,60.43,73.46c14.96-36.07,43.85-54.6,65.18-63.75c15.03-6.45,26.31-8.25,26.31-8.25   S361.019,287.178,269.918,328.608z"/>
	<path style="fill:none;stroke:#333333;stroke-width:15;stroke-linejoin:round;stroke-miterlimit:10;" d="M319.668,112.668   c0,0,0,0.01,0,0.02"/>
	
		<line style="fill:none;stroke:#333333;stroke-width:15;stroke-linejoin:round;stroke-miterlimit:10;" x1="89.248" y1="112.658" x2="89.248" y2="112.648"/>
	<path style="fill:#90BC42;" d="M205.009,342.758c-11.25,0.04-22.5-1.12-33.55-3.47c-11.09-2.36-21.98-5.92-32.46-10.68   c-91.1-41.43-86.47-141.12-86.47-141.12s11.28,1.8,26.31,8.24c21.33,9.15,50.23,27.68,65.19,63.76c0,0,8.06-23.72,24.02-44.69   l1.48,4.14c0,0-22.5,76.49,34.49,122.99C204.359,342.208,204.688,342.479,205.009,342.758z"/>
	<path style="fill:#90BC42;" d="M166.019,217.559c-14.62,20.23-21.99,41.93-21.99,41.93c-14.96-36.08-43.86-54.61-65.19-63.76   c-2.66-6.53-4.82-12.98-6.57-19.18v-0.01c-8.34-29.58-7.35-53.49-7.35-53.49s12.5,2.24,28.34,10.64c3.46,1.83,7.08,3.96,10.77,6.43   c16.4,10.95,34.07,28.55,44.56,56.39c0.13,0.31,0.24,0.63,0.36,0.94c0,0,0.06-0.2,0.18-0.57c0.66-2.09,3.19-9.75,7.57-19.51   l0.83,1.07c0,0-3,22.5,7.5,36C165.628,215.198,165.948,216.258,166.019,217.559z"/>
	<path style="fill:#FFFFFF;" d="M304.271,281.78c-1.66,0-3.331-0.549-4.721-1.676c-3.217-2.61-3.708-7.333-1.099-10.55   c8.226-10.138,14.787-22.071,19.502-35.471c1.611-4.578,3.011-9.363,4.159-14.225c0.952-4.032,4.992-6.532,9.023-5.574   c4.031,0.952,6.527,4.992,5.574,9.023c-1.271,5.377-2.82,10.677-4.606,15.754c-5.289,15.027-12.691,28.466-22.004,39.943   C308.618,280.833,306.454,281.78,304.271,281.78z"/>
	<path style="fill:#90BC42;" d="M161.539,167.338c-7.38,14.24-11.53,26.77-12.41,29.54c-0.18-0.12-0.36-0.25-0.54-0.37   c-10.49-27.84-28.16-45.44-44.56-56.39c-3.69-2.47-7.31-4.6-10.77-6.43c-15.52-43.19,18.44-86.67,18.44-86.67   s4.9,81.4,48.83,119.42C160.878,166.738,161.208,167.039,161.539,167.338z"/>
	<path style="fill:#FFFFFF;" d="M313.787,190.193c-1.052,0-2.12-0.223-3.139-0.692c-3.761-1.736-5.402-6.191-3.666-9.953   c2.969-6.432,6.382-22.114,7.446-27.614c0.787-4.067,4.722-6.729,8.788-5.938c4.067,0.787,6.726,4.722,5.938,8.788   c-0.427,2.207-4.296,21.826-8.554,31.052C319.335,188.577,316.622,190.193,313.787,190.193z"/>
	<path style="fill:#FFFFFF;" d="M299.129,127.525c-0.072,0-0.145-0.001-0.218-0.003c-4.141-0.118-7.401-3.57-7.283-7.711   c0.193-6.782-0.656-13.93-2.526-21.241c-1.026-4.013,1.395-8.098,5.407-9.124c4.018-1.031,8.099,1.396,9.124,5.407   c2.217,8.665,3.223,17.206,2.989,25.386C306.506,124.307,303.172,127.525,299.129,127.525z"/>
	<path style="fill:#FFFFFF;" d="M252.463,60.858c-2.243,0-4.462-1.002-5.939-2.914c-9.935-12.857-23.604-18.988-23.741-19.049   c-3.782-1.669-5.51-6.089-3.852-9.875c1.659-3.787,6.059-5.522,9.851-3.873c0.698,0.304,17.243,7.618,29.611,23.625   c2.533,3.278,1.929,7.988-1.349,10.521C255.679,60.348,254.065,60.858,252.463,60.858z"/>
	<circle style="fill:#FFFFFF;" cx="289.258" cy="77.306" r="7.5"/>
	<path style="fill:#333333;" d="M363.873,187.139c-0.1-2.132-1.103-4.12-2.757-5.468c-1.655-1.347-3.805-1.925-5.914-1.591   c-0.376,0.06-5.239,0.859-12.708,3.129c9.996-32.325,9.043-59.175,8.989-60.47c-0.089-2.164-1.11-4.184-2.8-5.539   s-3.886-1.913-6.014-1.533c-0.461,0.082-6.822,1.259-16.132,4.833c5.432-40.55-22.086-76.404-23.407-78.096   c-1.973-2.525-5.333-3.518-8.359-2.473c-0.558,0.192-3.592,1.321-8.076,4.273C261.506,15.255,233.19,0,204.458,0   c-28.749,0-57.071,15.262-82.253,44.222c-4.587-3.034-7.641-4.147-8.058-4.291c-3.023-1.043-6.386-0.054-8.359,2.473   c-1.321,1.692-28.841,37.549-23.407,78.1c-9.318-3.577-15.681-4.754-16.142-4.836c-2.127-0.38-4.325,0.178-6.014,1.533   c-1.689,1.355-2.711,3.375-2.8,5.539c-0.054,1.295-1.008,28.144,8.992,60.47c-7.47-2.27-12.332-3.069-12.708-3.129   c-2.112-0.339-4.26,0.243-5.914,1.591s-2.657,3.336-2.757,5.468c-0.05,1.076-1.104,26.699,9.461,57.786   c9.809,28.865,31.892,67.999,81.392,90.506c9.115,4.145,18.511,7.41,28.068,9.821v56.159c0,4.143,3.357,7.5,7.5,7.5h66   c4.143,0,7.5-3.357,7.5-7.5v-56.162c9.556-2.411,18.951-5.675,28.062-9.818c49.5-22.507,71.583-61.641,81.392-90.506   C364.976,213.838,363.922,188.215,363.873,187.139z M275.124,53.765c-0.675,0.675-1.358,1.379-2.05,2.117   c-10.391,11.091-19.108,25.594-26.044,43.292c-1.198-3.574-2.557-7.369-4.073-11.256c-8.985-23.022-19.399-38.665-30.998-46.649   v-25.83C228.646,17.362,251.124,26.277,275.124,53.765z M196.958,15.439v25.829c-11.603,7.984-22.02,23.628-31.007,46.65   c-1.522,3.9-2.884,7.707-4.086,11.291c-8.786-22.327-19.225-36.527-28.102-45.413C157.766,26.283,180.259,17.362,196.958,15.439z    M103.466,77.332c3.508-8.802,7.674-15.998,10.572-20.514c9.085,6.087,28.786,24.008,41.075,69.978   c0.878,3.287,3.855,5.563,7.243,5.563c0.058,0,0.114-0.001,0.171-0.002c3.458-0.078,6.415-2.512,7.157-5.891   c3.53-16.08,16.315-58.39,34.772-72.161c18.451,13.771,31.234,56.081,34.765,72.158c0.739,3.381,3.695,5.815,7.155,5.895   c3.446,0.068,6.523-2.219,7.417-5.562c12.304-46.029,32.046-63.938,41.08-69.988c7.563,11.78,23.777,41.89,14.597,71.713   c-2.849,1.598-5.777,3.374-8.748,5.362c-17.098,11.415-30.546,26.15-40.136,43.943c-2.506-5.865-5.729-12.707-9.658-19.68   c-12.824-22.76-27.563-37.432-43.807-43.607c-1.717-0.652-3.613-0.652-5.33,0c-16.248,6.176-30.989,20.848-43.815,43.607   c-3.929,6.973-7.151,13.813-9.657,19.675c-9.585-17.789-23.029-32.522-40.121-43.935c-2.971-1.988-5.901-3.764-8.75-5.362   C94.704,113.161,96.045,95.956,103.466,77.332z M72.608,132.941c6.831,2.292,16.796,6.417,27.257,13.416   c19.338,12.911,33.37,30.675,41.705,52.797c0.033,0.086,0.066,0.172,0.103,0.257c0.042,0.102,0.079,0.205,0.117,0.308l0.164,0.438   c1.156,2.986,4.089,4.909,7.284,4.782c3.201-0.122,5.973-2.271,6.896-5.338l0.143-0.448c6.643-20.896,24.056-58.159,48.183-69.461   c24.119,11.302,41.531,48.566,48.187,69.504l0.125,0.394c0.915,3.075,3.684,5.228,6.889,5.355c0.102,0.004,0.201,0.006,0.302,0.006   c3.087,0,5.872-1.896,6.993-4.794l0.164-0.438c0.038-0.103,0.075-0.206,0.117-0.308c0.035-0.084,0.069-0.169,0.102-0.255   c8.345-22.124,22.38-39.889,41.724-52.804c10.458-7.001,20.426-11.126,27.252-13.415c-0.638,12.035-3.098,33.944-12.079,57.171   c-2.437,1.107-4.951,2.327-7.517,3.671c-21.993,11.52-39.443,27.836-51.209,47.726c-2.439-5.175-5.569-11.238-9.397-17.557   c-14.344-23.678-30.915-38.825-49.252-45.024c-1.557-0.525-3.246-0.525-4.803,0c-18.338,6.199-34.908,21.347-49.253,45.024   c-3.827,6.316-6.958,12.382-9.397,17.557c-11.765-19.89-29.216-36.206-51.208-47.726c-2.566-1.344-5.08-2.564-7.517-3.671   C75.729,166.959,73.259,145.003,72.608,132.941z M229.958,393.91h-51V348.31c8.447,1.316,16.971,1.982,25.497,1.981   c8.526,0,17.053-0.667,25.503-1.984V393.91z M340.035,240.609c-12.936,37.647-37.572,64.956-73.224,81.167   c-39.627,18.021-85.083,18.02-124.712,0c-35.652-16.211-60.288-43.52-73.224-81.167c-6.137-17.857-8.063-33.976-8.643-43.573   c18.017,5.2,58.676,21.454,76.864,65.319c1.195,2.885,4.07,4.745,7.173,4.624c3.12-0.103,5.851-2.126,6.855-5.082   c0.049-0.143,4.939-14.387,14.505-30.176c8.194-13.525,21.456-30.739,38.827-37.7c34.502,13.785,53.14,67.329,53.327,67.876   c1.004,2.956,3.735,4.979,6.855,5.082c3.112,0.122,5.978-1.739,7.173-4.623c18.117-43.694,58.83-60.042,76.862-65.293   C348.093,206.667,346.165,222.77,340.035,240.609z"/>
</g>















</svg>
